<svg width="24" height="24" viewBox="0 0 24 24" fill="none" xmlns="http://www.w3.org/2000/svg" q:key="fe_0"><path d="M9 6.5C9 6.32741 8.86009 6.1875 8.6875 6.1875C7.65196 6.1875 6.8125 5.34804 6.8125 4.3125C6.8125 4.13991 6.67259 4 6.5 4C6.32741 4 6.1875 4.13991 6.1875 4.3125C6.1875 5.34804 5.34804 6.1875 4.3125 6.1875C4.13991 6.1875 4 6.32741 4 6.5C4 6.67259 4.13991 6.8125 4.3125 6.8125C5.34804 6.8125 6.1875 7.65196 6.1875 8.6875C6.1875 8.86009 6.32741 9 6.5 9C6.67259 9 6.8125 8.86009 6.8125 8.6875C6.8125 7.65196 7.65196 6.8125 8.6875 6.8125C8.86009 6.8125 9 6.67259 9 6.5Z" fill="url(#paint0_linear_536_7111)" style="mix-blend-mode:screen"></path><path d="M9 6.5C9 6.32741 8.86009 6.1875 8.6875 6.1875C7.65196 6.1875 6.8125 5.34804 6.8125 4.3125C6.8125 4.13991 6.67259 4 6.5 4C6.32741 4 6.1875 4.13991 6.1875 4.3125C6.1875 5.34804 5.34804 6.1875 4.3125 6.1875C4.13991 6.1875 4 6.32741 4 6.5C4 6.67259 4.13991 6.8125 4.3125 6.8125C5.34804 6.8125 6.1875 7.65196 6.1875 8.6875C6.1875 8.86009 6.32741 9 6.5 9C6.67259 9 6.8125 8.86009 6.8125 8.6875C6.8125 7.65196 7.65196 6.8125 8.6875 6.8125C8.86009 6.8125 9 6.67259 9 6.5Z" fill="white" fill-opacity="0.5"></path><path d="M16.5 6C16.5 5.72386 16.2761 5.5 16 5.5C15.7239 5.5 15.5 5.72386 15.5 6C15.5 8.48488 13.4852 10.5 11 10.5C10.7239 10.5 10.5 10.7239 10.5 11C10.5 11.2761 10.7239 11.5 11 11.5C13.4853 11.5 15.5 13.5142 15.5 16C15.5 16.2761 15.7239 16.5 16 16.5C16.2761 16.5 16.5 16.2761 16.5 16C16.5 13.5141 18.5141 11.5 21 11.5C21.2761 11.5 21.5 11.2761 21.5 11C21.5 10.7239 21.2761 10.5 21 10.5C18.5142 10.5 16.5 8.48492 16.5 6Z" fill="url(#paint1_linear_536_7111)" style="mix-blend-mode:screen"></path><path d="M16.5 6C16.5 5.72386 16.2761 5.5 16 5.5C15.7239 5.5 15.5 5.72386 15.5 6C15.5 8.48488 13.4852 10.5 11 10.5C10.7239 10.5 10.5 10.7239 10.5 11C10.5 11.2761 10.7239 11.5 11 11.5C13.4853 11.5 15.5 13.5142 15.5 16C15.5 16.2761 15.7239 16.5 16 16.5C16.2761 16.5 16.5 16.2761 16.5 16C16.5 13.5141 18.5141 11.5 21 11.5C21.2761 11.5 21.5 11.2761 21.5 11C21.5 10.7239 21.2761 10.5 21 10.5C18.5142 10.5 16.5 8.48492 16.5 6Z" fill="white" fill-opacity="0.5"></path><path d="M7.5 12.5C7.5 12.2239 7.27614 12 7 12C6.72386 12 6.5 12.2239 6.5 12.5C6.5 14.1569 5.15686 15.5 3.5 15.5C3.22386 15.5 3 15.7239 3 16C3 16.2761 3.22386 16.5 3.5 16.5C5.15686 16.5 6.5 17.8431 6.5 19.5C6.5 19.7761 6.72386 20 7 20C7.27614 20 7.5 19.7761 7.5 19.5C7.5 17.8431 8.84314 16.5 10.5 16.5C10.7761 16.5 11 16.2761 11 16C11 15.7239 10.7761 15.5 10.5 15.5C8.84314 15.5 7.5 14.1569 7.5 12.5Z" fill="url(#paint2_linear_536_7111)" style="mix-blend-mode:screen"></path><path d="M7.5 12.5C7.5 12.2239 7.27614 12 7 12C6.72386 12 6.5 12.2239 6.5 12.5C6.5 14.1569 5.15686 15.5 3.5 15.5C3.22386 15.5 3 15.7239 3 16C3 16.2761 3.22386 16.5 3.5 16.5C5.15686 16.5 6.5 17.8431 6.5 19.5C6.5 19.7761 6.72386 20 7 20C7.27614 20 7.5 19.7761 7.5 19.5C7.5 17.8431 8.84314 16.5 10.5 16.5C10.7761 16.5 11 16.2761 11 16C11 15.7239 10.7761 15.5 10.5 15.5C8.84314 15.5 7.5 14.1569 7.5 12.5Z" fill="white" fill-opacity="0.5"></path><defs><linearGradient id="paint0_linear_536_7111" x1="3" y1="20" x2="21.5" y2="20.0025" gradientUnits="userSpaceOnUse"><stop stop-color="#E59CFF"></stop><stop offset="0.5" stop-color="#BA9CFF"></stop><stop offset="1" stop-color="#9CB2FF"></stop></linearGradient><linearGradient id="paint1_linear_536_7111" x1="3" y1="20" x2="21.5" y2="20.0025" gradientUnits="userSpaceOnUse"><stop stop-color="#E59CFF"></stop><stop offset="0.5" stop-color="#BA9CFF"></stop><stop offset="1" stop-color="#9CB2FF"></stop></linearGradient><linearGradient id="paint2_linear_536_7111" x1="3" y1="20" x2="21.5" y2="20.0025" gradientUnits="userSpaceOnUse"><stop stop-color="#E59CFF"></stop><stop offset="0.5" stop-color="#BA9CFF"></stop><stop offset="1" stop-color="#9CB2FF"></stop></linearGradient></defs></svg>