<svg width="512" height="512" viewBox="0 0 512 512" fill="none" xmlns="http://www.w3.org/2000/svg">
<g clip-path="url(#clip0_2018_43)">
<path d="M436.708 75.2922L373.945 219.803C368.151 233.142 365.254 239.811 364.109 246.734C363.094 252.869 363.094 259.129 364.11 265.266C365.255 272.188 368.151 278.858 373.946 292.198L436.708 436.708L292.198 373.946C278.858 368.151 272.189 365.254 265.266 364.109C259.13 363.093 252.87 363.093 246.734 364.109C239.811 365.254 233.142 368.151 219.802 373.946L75.2922 436.708L138.054 292.198C143.849 278.858 146.745 272.188 147.89 265.266C148.906 259.129 148.906 252.869 147.891 246.734C146.746 239.811 143.849 233.142 138.055 219.803L75.2922 75.2922L219.802 138.055C233.142 143.849 239.812 146.745 246.734 147.89C252.87 148.905 259.13 148.905 265.266 147.89C272.188 146.745 278.858 143.849 292.198 138.055L436.708 75.2922Z" fill="url(#paint0_linear_2018_43)"/>
</g>
<defs>
<linearGradient id="paint0_linear_2018_43" x1="216.932" y1="217.807" x2="376.639" y2="377.514" gradientUnits="userSpaceOnUse">
<stop stop-color="#FF495B"/>
<stop offset="0.5001" stop-color="#322FE6"/>
<stop offset="1" stop-color="#6659FF"/>
</linearGradient>
<clipPath id="clip0_2018_43">
<rect width="512" height="512" fill="white"/>
</clipPath>
</defs>
</svg>
