<svg width="221" height="60" viewBox="0 0 221 60" fill="none" xmlns="http://www.w3.org/2000/svg">
<g clip-path="url(#clip0_28525_53978)">
<path d="M12.3 9.075C2.025 24.9 4.95 47.025 20.625 58.95C20.925 59.25 21.075 59.625 20.925 59.85C20.775 60.075 20.325 60.075 20.025 59.775C12.5874 53.8887 7.67801 45.3845 6.3 36C4.875 26.55 6.975 16.95 12.3 9.075ZM13.125 53.625C10.95 55.5 6.6 53.925 4.425 49.575C7.05 48.3 10.575 50.325 13.125 53.625ZM15.45 43.8C16.875 46.725 16.875 50.4 14.7 52.35C12.15 49.05 12.9 45 15.45 43.8ZM9.075 47.1C6.6 48.6 2.7 46.2 1.425 41.55C4.2 40.875 7.2 43.5 9.075 47.1ZM13.35 38.1C14.175 41.25 13.425 44.85 10.875 46.2H10.8C9 42.525 10.575 38.775 13.35 38.1ZM6.45 40.125C3.675 41.025 0.375 37.95 0 33.15C2.85 33 5.325 36.225 6.45 40.125ZM12.375 32.175C12.6 35.4 11.1 38.7 8.325 39.6V39.525C7.275 35.625 9.45 32.325 12.375 32.175ZM0.225 24.6C3.075 25.125 4.875 28.725 5.175 32.7C2.325 33.075 -0.375 29.4 0.225 24.6ZM12.525 26.175C12.075 29.4 10.05 32.25 7.2 32.625L7.125 32.55C6.9 28.575 9.675 25.725 12.525 26.175ZM13.8 20.325C12.825 23.4 10.2 25.8 7.35 25.5C7.8 21.525 11.1 19.275 13.8 20.325ZM2.025 16.275C4.65 17.325 5.775 21.15 5.4 25.05L5.325 25.275H5.25C2.475 24.9 0.6 21 1.95 16.5L2.025 16.275ZM16.2 14.7C14.55 17.55 11.625 19.425 8.85 18.6C10.05 14.775 13.725 13.125 16.2 14.7ZM5.475 8.4C7.875 9.975 8.175 14.1 6.975 18C4.2 17.175 3 12.675 5.475 8.4ZM19.725 9.6C17.475 12.15 14.175 13.425 11.625 12.075C13.65 8.475 17.7 7.575 19.725 9.6ZM10.425 1.2C12.525 3.3 11.925 7.5 9.9 11.025C7.425 9.675 7.125 5.025 10.425 1.2ZM20.925 0C19.575 3.525 16.725 6.3 13.275 7.65C13.275 4.05 17.175 0.075 20.925 0Z" fill="#00AA45"/>
</g>
<path d="M79.9363 20.5V9.85H81.8863V18.805H86.9413V20.5H79.9363ZM89.3254 20.5V9.85H91.2754V20.5H89.3254ZM97.276 20.5L93.421 9.85H95.476L98.461 18.325L101.446 9.85H103.486L99.631 20.5H97.276ZM105.628 20.5V9.85H112.798V11.545H107.578V14.32H112.618V16H107.578V18.805H112.918V20.5H105.628ZM124.131 20.74C120.966 20.74 119.046 18.625 119.046 15.19C119.046 11.755 120.966 9.61 124.131 9.61C127.311 9.61 129.216 11.755 129.216 15.19C129.216 18.625 127.311 20.74 124.131 20.74ZM124.131 19.045C126.051 19.045 127.191 17.62 127.191 15.19C127.191 12.76 126.051 11.305 124.131 11.305C122.211 11.305 121.071 12.76 121.071 15.19C121.071 17.62 122.211 19.045 124.131 19.045ZM131.32 20.5V9.85H133.6L138.19 17.86V9.85H140.14V20.5H137.8L133.27 12.715V20.5H131.32Z" fill="#64748B"/>
<path d="M39.3392 37.9485C39.3392 38.8852 39.0978 39.6958 38.615 40.3804C38.1395 41.0649 37.4622 41.5945 36.5831 41.9692C35.7112 42.3438 34.6809 42.5312 33.492 42.5312C32.6994 42.5312 31.9752 42.4483 31.3195 42.2826C30.6639 42.1169 30.091 41.8827 29.6011 41.5801L29.7524 40.6181C30.0118 40.7983 30.2928 40.9496 30.5954 41.0721C30.898 41.1874 31.2187 41.2774 31.5573 41.3423C31.896 41.3999 32.249 41.4287 32.6165 41.4287C33.2794 41.4287 33.8703 41.2918 34.389 41.018C34.9078 40.7442 35.3149 40.3407 35.6104 39.8075C35.9058 39.2743 36.0535 38.6258 36.0535 37.8621C36.0535 36.9758 35.877 36.2084 35.5239 35.5599C35.178 34.9115 34.6881 34.4071 34.054 34.0468C33.4199 33.6865 32.6742 33.5064 31.8167 33.5064H30.9629V45.7628C30.9629 45.9213 31.0061 46.0582 31.0926 46.1735C31.179 46.2816 31.3159 46.35 31.5033 46.3789L32.4436 46.5086C32.6237 46.5446 32.7534 46.6058 32.8327 46.6923C32.9119 46.7788 32.9516 46.9049 32.9516 47.0706C32.9516 47.2219 32.8975 47.3444 32.7894 47.4381C32.6886 47.5245 32.5264 47.5678 32.3031 47.5678H26.6612C26.4379 47.5678 26.2722 47.5245 26.1641 47.4381C26.056 47.3444 26.002 47.2219 26.002 47.0706C26.002 46.7968 26.1533 46.613 26.4559 46.5194L27.0828 46.3789C27.2557 46.3284 27.3854 46.2528 27.4719 46.1519C27.5655 46.051 27.6124 45.9213 27.6124 45.7628V34.2414C27.6124 34.0828 27.5655 33.9531 27.4719 33.8523C27.3854 33.7514 27.2557 33.6757 27.0828 33.6253L26.4559 33.4848C26.1533 33.3911 26.002 33.2074 26.002 32.9336C26.002 32.7751 26.056 32.6526 26.1641 32.5661C26.2722 32.4796 26.4379 32.4364 26.6612 32.4364H31.9032C33.474 32.4364 34.8142 32.6742 35.9238 33.1497C37.0334 33.6181 37.8801 34.2702 38.4637 35.106C39.0473 35.9346 39.3392 36.8821 39.3392 37.9485Z" fill="#0D0D0D"/>
<path d="M49.7761 41.1802C49.7761 41.562 49.668 41.8575 49.4518 42.0664C49.2357 42.2682 48.9186 42.3691 48.5007 42.3691H41.7565V41.5476H46.177C46.5445 41.5476 46.7282 41.3819 46.7282 41.0505C46.7282 40.0993 46.5553 39.3788 46.2094 38.8888C45.8635 38.3917 45.3988 38.1431 44.8152 38.1431C44.3684 38.1431 43.9721 38.28 43.6263 38.5538C43.2804 38.8276 43.0102 39.2203 42.8157 39.7319C42.6211 40.2363 42.5238 40.8487 42.5238 41.5693C42.5238 42.9599 42.8481 44.0047 43.4966 44.7036C44.1523 45.4025 45.0241 45.752 46.1121 45.752C46.7462 45.752 47.301 45.6259 47.7766 45.3737C48.2593 45.1215 48.634 44.7612 48.9006 44.2929C49.0303 44.1488 49.1312 44.0515 49.2032 44.0011C49.2825 43.9506 49.3618 43.9254 49.441 43.9254C49.5563 43.9254 49.6392 43.9795 49.6896 44.0875C49.7401 44.1884 49.7653 44.3109 49.7653 44.455C49.7364 45.0603 49.5203 45.6223 49.1168 46.1411C48.7133 46.6527 48.1693 47.0634 47.4848 47.3732C46.8002 47.683 46.0149 47.838 45.1286 47.838C44.0838 47.838 43.1579 47.6254 42.3509 47.2003C41.5439 46.768 40.9098 46.1663 40.4487 45.3953C39.9947 44.6171 39.7678 43.7093 39.7678 42.6717C39.7678 41.5837 39.9839 40.6181 40.4163 39.7751C40.8558 38.9321 41.4827 38.2728 42.2969 37.7972C43.1111 37.3217 44.0838 37.0839 45.2151 37.0839C46.1806 37.0839 47.002 37.2604 47.6793 37.6135C48.3638 37.9593 48.8826 38.4421 49.2357 39.0618C49.5959 39.6742 49.7761 40.3804 49.7761 41.1802Z" fill="#0D0D0D"/>
<path d="M60.8696 41.1802C60.8696 41.562 60.7615 41.8575 60.5453 42.0664C60.3292 42.2682 60.0121 42.3691 59.5942 42.3691H52.85V41.5476H57.2705C57.638 41.5476 57.8217 41.3819 57.8217 41.0505C57.8217 40.0993 57.6488 39.3788 57.3029 38.8888C56.9571 38.3917 56.4923 38.1431 55.9087 38.1431C55.4619 38.1431 55.0656 38.28 54.7198 38.5538C54.3739 38.8276 54.1037 39.2203 53.9092 39.7319C53.7146 40.2363 53.6173 40.8487 53.6173 41.5693C53.6173 42.9599 53.9416 44.0047 54.5901 44.7036C55.2458 45.4025 56.1176 45.752 57.2056 45.752C57.8397 45.752 58.3945 45.6259 58.8701 45.3737C59.3529 45.1215 59.7275 44.7612 59.9941 44.2929C60.1238 44.1488 60.2247 44.0515 60.2968 44.0011C60.376 43.9506 60.4553 43.9254 60.5345 43.9254C60.6498 43.9254 60.7327 43.9795 60.7831 44.0875C60.8336 44.1884 60.8588 44.3109 60.8588 44.455C60.83 45.0603 60.6138 45.6223 60.2103 46.1411C59.8068 46.6527 59.2628 47.0634 58.5783 47.3732C57.8938 47.683 57.1084 47.838 56.2221 47.838C55.1773 47.838 54.2514 47.6254 53.4444 47.2003C52.6374 46.768 52.0033 46.1663 51.5422 45.3953C51.0883 44.6171 50.8613 43.7093 50.8613 42.6717C50.8613 41.5837 51.0774 40.6181 51.5098 39.7751C51.9493 38.9321 52.5762 38.2728 53.3904 37.7972C54.2046 37.3217 55.1773 37.0839 56.3086 37.0839C57.2741 37.0839 58.0955 37.2604 58.7728 37.6135C59.4573 37.9593 59.9761 38.4421 60.3292 39.0618C60.6895 39.6742 60.8696 40.3804 60.8696 41.1802Z" fill="#0D0D0D"/>
<path d="M65.9106 41.8395C65.9106 40.7947 66.0583 39.9192 66.3537 39.2131C66.6491 38.507 67.0382 37.9774 67.521 37.6243C68.0037 37.264 68.5225 37.0839 69.0773 37.0839C69.7618 37.0839 70.2914 37.2784 70.6661 37.6675C71.0408 38.0566 71.2281 38.615 71.2281 39.3428C71.2281 39.9913 71.0949 40.474 70.8283 40.7911C70.5617 41.1081 70.2158 41.2666 69.7907 41.2666C69.3583 41.2666 69.0305 41.1513 68.8071 40.9208C68.5838 40.6902 68.4721 40.3696 68.4721 39.9588V39.5698C68.4649 39.3392 68.4108 39.1699 68.31 39.0618C68.2091 38.9465 68.0434 38.8888 67.8128 38.8888C67.5606 38.8888 67.3156 38.9933 67.0778 39.2023C66.8473 39.4112 66.6563 39.7283 66.505 40.1534C66.3609 40.5785 66.2888 41.1225 66.2888 41.7854L65.9106 41.8395ZM66.1159 37.8296L66.2888 40.2831V45.8276C66.2888 46.0366 66.3285 46.1915 66.4077 46.2924C66.4942 46.3861 66.6455 46.4509 66.8617 46.4869L67.7912 46.6274C67.9569 46.6563 68.0794 46.7103 68.1586 46.7896C68.2451 46.8688 68.2883 46.9769 68.2883 47.1138C68.2883 47.2579 68.2343 47.3696 68.1262 47.4489C68.0253 47.5281 67.8776 47.5678 67.6831 47.5678H62.6357C62.434 47.5678 62.2862 47.5281 62.1926 47.4489C62.0989 47.3696 62.0521 47.2615 62.0521 47.1246C62.0521 47.0165 62.0845 46.9265 62.1493 46.8544C62.2142 46.7752 62.3151 46.7103 62.452 46.6599L62.8735 46.5518C63.0032 46.5086 63.0968 46.4365 63.1545 46.3356C63.2193 46.2275 63.2518 46.0618 63.2518 45.8385V39.667C63.2518 39.4797 63.2229 39.3464 63.1653 39.2671C63.1149 39.1879 63.0284 39.1374 62.9059 39.1158L62.3331 39.0726C62.2034 39.0438 62.1097 38.9969 62.0521 38.9321C61.9944 38.8672 61.9656 38.7844 61.9656 38.6835C61.9656 38.561 62.0016 38.4637 62.0737 38.3917C62.1457 38.3196 62.2754 38.2476 62.4628 38.1755L64.4298 37.4622C64.7829 37.3253 65.0423 37.2388 65.208 37.2028C65.3738 37.1595 65.5035 37.1379 65.5971 37.1379C65.7556 37.1379 65.8745 37.192 65.9538 37.3C66.0331 37.4009 66.0871 37.5775 66.1159 37.8296Z" fill="#0D0D0D"/>
<path d="M76.211 32.1878V45.8385C76.211 46.0618 76.2398 46.2275 76.2975 46.3356C76.3623 46.4365 76.4596 46.5086 76.5893 46.5518L77 46.6599C77.1369 46.7031 77.2378 46.7643 77.3026 46.8436C77.3675 46.9157 77.3999 47.0093 77.3999 47.1246C77.3999 47.2615 77.3531 47.3696 77.2594 47.4489C77.1657 47.5281 77.0144 47.5678 76.8055 47.5678H72.5471C72.3453 47.5678 72.1976 47.5281 72.1039 47.4489C72.0103 47.3696 71.9634 47.2615 71.9634 47.1246C71.9634 47.0165 71.9959 46.9265 72.0607 46.8544C72.1256 46.7752 72.2264 46.7103 72.3633 46.6599L72.7849 46.5518C72.9146 46.5014 73.0082 46.4257 73.0659 46.3248C73.1307 46.2239 73.1631 46.0618 73.1631 45.8385V34.0036C73.1631 33.8234 73.1343 33.6937 73.0767 33.6145C73.0262 33.5352 72.9398 33.4848 72.8173 33.4632L72.2444 33.4199C72.1148 33.3839 72.0211 33.3335 71.9634 33.2686C71.9058 33.2038 71.877 33.1209 71.877 33.02C71.877 32.9048 71.913 32.8111 71.9851 32.739C72.0571 32.667 72.1868 32.5949 72.3741 32.5229L74.3845 31.7879C74.6727 31.6798 74.8996 31.6042 75.0654 31.5609C75.2311 31.5177 75.3752 31.4961 75.4977 31.4961C75.7355 31.4961 75.912 31.5609 76.0273 31.6906C76.1498 31.8131 76.211 31.9789 76.211 32.1878Z" fill="#0D0D0D"/>
<path d="M82.6815 37.8188V45.8385C82.6815 46.0618 82.7104 46.2275 82.768 46.3356C82.8329 46.4365 82.9301 46.5086 83.0598 46.5518L83.4705 46.6599C83.6074 46.7031 83.7083 46.7643 83.7732 46.8436C83.838 46.9157 83.8704 47.0093 83.8704 47.1246C83.8704 47.2615 83.8236 47.3696 83.7299 47.4489C83.6363 47.5281 83.4849 47.5678 83.276 47.5678H79.0176C78.8158 47.5678 78.6681 47.5281 78.5745 47.4489C78.4808 47.3696 78.4339 47.2615 78.4339 47.1246C78.4339 47.0165 78.4664 46.9265 78.5312 46.8544C78.5961 46.7752 78.6969 46.7103 78.8339 46.6599L79.2554 46.5518C79.3851 46.5014 79.4787 46.4257 79.5364 46.3248C79.6012 46.2239 79.6336 46.0618 79.6336 45.8385V39.6454C79.6336 39.4581 79.6048 39.3248 79.5472 39.2455C79.4967 39.1662 79.4103 39.1158 79.2878 39.0942L78.715 39.051C78.5853 39.0221 78.4916 38.9753 78.4339 38.9105C78.3763 38.8456 78.3475 38.7627 78.3475 38.6619C78.3475 38.5394 78.3799 38.4421 78.4448 38.3701C78.5168 38.298 78.6501 38.2259 78.8447 38.1539L80.855 37.4189C81.136 37.3181 81.3593 37.246 81.5251 37.2028C81.698 37.1595 81.8421 37.1379 81.9574 37.1379C82.2024 37.1379 82.3825 37.2028 82.4978 37.3325C82.6203 37.455 82.6815 37.6171 82.6815 37.8188ZM80.9198 35.4843C80.3434 35.4843 79.8786 35.3366 79.5256 35.0412C79.1797 34.7385 79.0068 34.3458 79.0068 33.8631C79.0068 33.3803 79.1797 32.9948 79.5256 32.7066C79.8786 32.4112 80.3434 32.2635 80.9198 32.2635C81.5035 32.2635 81.9682 32.4112 82.3141 32.7066C82.6671 32.9948 82.8437 33.3803 82.8437 33.8631C82.8437 34.3458 82.6671 34.7385 82.3141 35.0412C81.9682 35.3366 81.5035 35.4843 80.9198 35.4843Z" fill="#0D0D0D"/>
<path d="M89.0882 38.0566C88.591 38.0566 88.2019 38.1827 87.9209 38.4349C87.6471 38.6799 87.5102 38.9933 87.5102 39.3752C87.5102 39.613 87.5607 39.8291 87.6615 40.0237C87.7696 40.211 87.9714 40.384 88.2668 40.5425C88.5622 40.701 88.9945 40.8487 89.5638 40.9856C90.6734 41.2162 91.5308 41.5044 92.1361 41.8503C92.7414 42.1961 93.1629 42.596 93.4007 43.05C93.6384 43.4967 93.7573 43.9975 93.7573 44.5523C93.7573 45.5538 93.4043 46.3536 92.6981 46.9517C91.992 47.5425 90.9652 47.838 89.6178 47.838C89.1423 47.838 88.7532 47.7947 88.4505 47.7083C88.1479 47.629 87.8993 47.5497 87.7048 47.4705C87.5102 47.384 87.3373 47.3408 87.186 47.3408C87.0347 47.3408 86.9086 47.384 86.8077 47.4705C86.714 47.5497 86.624 47.629 86.5375 47.7083C86.451 47.7947 86.3357 47.838 86.1916 47.838C86.0619 47.838 85.9647 47.8019 85.8998 47.7299C85.835 47.6578 85.7737 47.5245 85.7161 47.33L85.0027 45.1575C84.9235 44.9054 84.8983 44.7 84.9271 44.5415C84.9631 44.383 85.0604 44.2713 85.2189 44.2064C85.3846 44.1488 85.5287 44.1524 85.6512 44.2172C85.7737 44.2749 85.889 44.3866 85.9971 44.5523C86.3213 45.1143 86.6672 45.5646 87.0347 45.9033C87.4021 46.2348 87.7876 46.4761 88.1911 46.6274C88.6018 46.7788 89.0198 46.8544 89.4449 46.8544C90.0645 46.8544 90.5257 46.7283 90.8283 46.4761C91.1382 46.2239 91.2931 45.8889 91.2931 45.471C91.2931 45.2188 91.2282 44.9918 91.0985 44.7901C90.9688 44.5811 90.7274 44.3938 90.3744 44.228C90.0213 44.0551 89.5097 43.893 88.8396 43.7417C87.9101 43.5399 87.168 43.2805 86.6132 42.9635C86.0655 42.6393 85.6692 42.2502 85.4243 41.7962C85.1865 41.3423 85.0676 40.8163 85.0676 40.2182C85.0676 39.5914 85.2297 39.0438 85.554 38.5754C85.8782 38.1071 86.3285 37.7432 86.905 37.4838C87.4814 37.2172 88.1479 37.0839 88.9045 37.0839C89.3944 37.0839 89.7871 37.1271 90.0826 37.2136C90.378 37.3 90.6194 37.3901 90.8067 37.4838C91.0013 37.5703 91.1778 37.6135 91.3363 37.6135C91.5092 37.6135 91.6461 37.5703 91.747 37.4838C91.8479 37.3901 91.9452 37.3 92.0388 37.2136C92.1325 37.1271 92.2478 37.0839 92.3847 37.0839C92.4928 37.0839 92.5828 37.1235 92.6549 37.2028C92.7341 37.2748 92.7918 37.4045 92.8278 37.5919L93.3574 39.6562C93.4079 39.9228 93.4187 40.1318 93.3898 40.2831C93.3682 40.4344 93.2746 40.5425 93.1088 40.6073C92.9503 40.6722 92.8098 40.665 92.6873 40.5857C92.5648 40.5065 92.4423 40.3659 92.3198 40.1642C91.8731 39.4004 91.3651 38.86 90.7959 38.543C90.2339 38.2187 89.6646 38.0566 89.0882 38.0566Z" fill="#0D0D0D"/>
<path d="M95.4927 38.3917L94.9955 38.2404C94.8226 38.1827 94.7001 38.1179 94.628 38.0458C94.556 37.9665 94.52 37.8765 94.52 37.7756C94.52 37.6315 94.5668 37.5234 94.6605 37.4514C94.7613 37.3721 94.8946 37.3325 95.0604 37.3325H95.7197C95.8926 37.3325 96.0367 37.3 96.152 37.2352C96.2673 37.1704 96.3862 37.0551 96.5087 36.8893L97.6867 35.2357C97.8381 35.0484 97.9822 34.9115 98.1191 34.825C98.256 34.7385 98.3929 34.6953 98.5298 34.6953C98.6811 34.6953 98.8 34.7421 98.8864 34.8358C98.9729 34.9295 99.0161 35.0664 99.0161 35.2465V44.4874C99.0161 44.9918 99.1134 45.3773 99.3079 45.6439C99.5097 45.9105 99.7871 46.0438 100.14 46.0438C100.407 46.0438 100.612 45.9934 100.756 45.8925C100.908 45.7844 101.026 45.6619 101.113 45.525C101.199 45.3881 101.282 45.2692 101.361 45.1684C101.448 45.0603 101.556 45.0026 101.686 44.9954C101.794 44.9954 101.877 45.0314 101.934 45.1035C101.999 45.1756 102.032 45.2944 102.032 45.4602C102.024 45.8709 101.887 46.2528 101.621 46.6058C101.361 46.9589 100.998 47.2471 100.529 47.4705C100.061 47.6866 99.5277 47.7947 98.9297 47.7947C98.0074 47.7947 97.2832 47.5641 96.7572 47.103C96.2384 46.6347 95.9791 45.9321 95.9791 44.9954V39.0293C95.9791 38.842 95.9394 38.7051 95.8602 38.6186C95.7881 38.525 95.6656 38.4493 95.4927 38.3917ZM97.8164 38.4025V37.3325H101.394C101.56 37.3325 101.689 37.3685 101.783 37.4406C101.884 37.5054 101.934 37.6027 101.934 37.7324C101.934 37.9197 101.841 38.0782 101.653 38.2079C101.466 38.3376 101.163 38.4025 100.745 38.4025H97.8164Z" fill="#0D0D0D"/>
<line x1="108.136" y1="31.7514" x2="108.136" y2="47.5826" stroke="#94A3B8" stroke-width="0.510683" stroke-linecap="round"/>
<path d="M113.772 47.5184C113.591 47.5184 113.5 47.4538 113.5 47.3245C113.5 47.1823 113.629 47.0918 113.888 47.053L114.276 46.9948C114.56 46.956 114.754 46.8914 114.858 46.8009C114.974 46.6974 115.058 46.51 115.11 46.2385L117.747 34.8354C117.812 34.5639 117.812 34.3829 117.747 34.2924C117.682 34.2018 117.521 34.1307 117.262 34.079L116.874 34.0015C116.706 33.9627 116.622 33.8916 116.622 33.7881C116.622 33.633 116.739 33.5554 116.971 33.5554H120.481C120.675 33.5554 120.753 33.633 120.714 33.7881C120.688 33.9045 120.604 33.9756 120.462 34.0015L119.919 34.079C119.635 34.1178 119.441 34.1889 119.337 34.2924C119.234 34.3958 119.15 34.5832 119.085 34.8547L116.564 45.7148C116.461 46.1803 116.525 46.5164 116.758 46.7233C116.991 46.9301 117.327 47.0336 117.766 47.0336C118.258 47.0336 118.762 46.8461 119.279 46.4712C119.796 46.0962 120.223 45.508 120.559 44.7064L121.141 43.3489C121.206 43.1808 121.309 43.0968 121.451 43.0968C121.645 43.0968 121.71 43.2067 121.645 43.4265L120.559 47.0724C120.481 47.3697 120.288 47.5184 119.977 47.5184H113.772Z" fill="#0D0D0D"/>
<path d="M123.954 47.6929C123.489 47.6929 123.127 47.4925 122.868 47.0918C122.609 46.691 122.48 46.1027 122.48 45.327C122.48 44.5901 122.584 43.8531 122.79 43.1162C122.997 42.3663 123.282 41.6552 123.644 40.9829C124.006 40.3107 124.413 39.7159 124.866 39.1988C125.331 38.6816 125.816 38.2744 126.32 37.977C126.837 37.6667 127.348 37.5116 127.852 37.5116C128.098 37.5116 128.33 37.5633 128.55 37.6667C128.77 37.7572 128.951 37.9059 129.093 38.1128C129.171 38.2291 129.248 38.2873 129.326 38.2873C129.404 38.2873 129.481 38.2291 129.559 38.1128C129.701 37.9059 129.817 37.7766 129.908 37.7249C129.998 37.6603 130.082 37.628 130.16 37.628C130.328 37.628 130.393 37.7185 130.354 37.8995L128.628 45.327C128.434 46.1674 128.563 46.5875 129.016 46.5875C129.313 46.5875 129.578 46.3871 129.811 45.9864C130.056 45.5856 130.302 44.965 130.548 44.1246C130.586 43.9824 130.671 43.9113 130.8 43.9113C130.89 43.9113 130.948 43.9501 130.974 44.0277C131 44.1052 131 44.1957 130.974 44.2992C130.729 45.5145 130.399 46.3871 129.985 46.9172C129.572 47.4344 129.074 47.6929 128.492 47.6929C127.988 47.6929 127.626 47.4796 127.406 47.053C127.199 46.6263 127.18 46.0445 127.348 45.3076L127.6 44.241C127.626 44.1505 127.606 44.0988 127.542 44.0858C127.49 44.0729 127.445 44.1052 127.406 44.1828C126.695 45.4886 126.061 46.4001 125.506 46.9172C124.962 47.4344 124.445 47.6929 123.954 47.6929ZM124.439 46.7039C124.749 46.7039 125.092 46.5164 125.467 46.1415C125.842 45.7666 126.21 45.2817 126.572 44.687C126.947 44.0923 127.29 43.4523 127.6 42.7671C127.91 42.0819 128.156 41.4225 128.337 40.789C128.531 40.1555 128.628 39.619 128.628 39.1794C128.628 38.3907 128.35 37.9964 127.794 37.9964C127.458 37.9964 127.102 38.1516 126.727 38.4619C126.352 38.7592 125.99 39.1665 125.641 39.6836C125.305 40.2008 124.995 40.789 124.71 41.4484C124.439 42.0948 124.219 42.7736 124.051 43.4846C123.883 44.1828 123.799 44.868 123.799 45.5403C123.799 45.9928 123.851 46.3031 123.954 46.4712C124.07 46.6263 124.232 46.7039 124.439 46.7039Z" fill="#0D0D0D"/>
<path d="M133.643 47.6929C133.165 47.6929 132.835 47.4796 132.654 47.053C132.486 46.6134 132.499 46.0381 132.693 45.327L134.225 39.703C134.329 39.3281 134.355 39.0372 134.303 38.8303C134.251 38.6235 134.135 38.52 133.954 38.52C133.656 38.52 133.353 38.7463 133.042 39.1988C132.745 39.6513 132.486 40.2783 132.267 41.0799C132.228 41.2221 132.144 41.2932 132.014 41.2932C131.833 41.2932 131.775 41.1639 131.84 40.9054C132.137 39.8194 132.525 38.9855 133.003 38.4037C133.495 37.809 134.031 37.5116 134.613 37.5116C135.079 37.5116 135.389 37.7249 135.544 38.1516C135.699 38.5782 135.673 39.16 135.466 39.8969L133.915 45.5209C133.669 46.413 133.753 46.859 134.167 46.859C134.426 46.859 134.723 46.6845 135.059 46.3354C135.395 45.9864 135.744 45.508 136.106 44.9003C136.481 44.2927 136.85 43.601 137.212 42.8253C137.574 42.0496 137.903 41.2351 138.201 40.3818C138.498 39.5285 138.744 38.6816 138.938 37.8413C138.977 37.6991 139.067 37.628 139.209 37.628H139.985C140.166 37.628 140.237 37.712 140.198 37.8801L138.375 45.6761C138.233 46.2837 138.343 46.5875 138.705 46.5875C139.248 46.5875 139.817 45.7666 140.412 44.1246C140.463 43.9565 140.554 43.8725 140.683 43.8725C140.761 43.8725 140.812 43.9048 140.838 43.9695C140.877 44.0341 140.877 44.1182 140.838 44.2216C140.489 45.3205 140.075 46.1738 139.597 46.7815C139.119 47.3891 138.615 47.6929 138.084 47.6929C137.154 47.6929 136.843 47.0142 137.154 45.6567L137.658 43.504C137.684 43.4135 137.664 43.3618 137.6 43.3489C137.548 43.336 137.503 43.3683 137.464 43.4459C136.714 44.9973 136.022 46.0962 135.389 46.7427C134.755 47.3762 134.174 47.6929 133.643 47.6929Z" fill="#0D0D0D"/>
<path d="M142.289 47.2663L144.131 39.5285C144.196 39.244 144.203 39.0243 144.151 38.8691C144.112 38.701 143.996 38.617 143.802 38.617C143.569 38.617 143.31 38.7915 143.026 39.1406C142.755 39.4768 142.444 40.1232 142.095 41.0799C142.043 41.248 141.953 41.332 141.824 41.332C141.63 41.332 141.578 41.2157 141.669 40.9829C141.953 40.0909 142.25 39.3927 142.561 38.8885C142.884 38.3843 143.207 38.0287 143.53 37.8219C143.853 37.615 144.151 37.5116 144.422 37.5116C144.849 37.5116 145.153 37.6732 145.334 37.9964C145.515 38.3067 145.521 38.8239 145.353 39.5479L144.868 41.6423C144.855 41.7328 144.875 41.7845 144.927 41.7975C144.978 41.8104 145.024 41.7781 145.062 41.7005C145.567 40.6533 146.051 39.8258 146.517 39.2182C146.982 38.5976 147.422 38.158 147.836 37.8995C148.249 37.6409 148.624 37.5116 148.96 37.5116C149.439 37.5116 149.788 37.7055 150.008 38.0934C150.227 38.4812 150.227 39.076 150.008 39.8775L148.534 45.5015C148.443 45.8635 148.437 46.135 148.514 46.316C148.592 46.497 148.734 46.5875 148.941 46.5875C149.199 46.5875 149.452 46.4195 149.697 46.0833C149.956 45.7342 150.221 45.0813 150.492 44.1246C150.531 43.9824 150.615 43.9113 150.744 43.9113C150.848 43.9113 150.906 43.9501 150.919 44.0277C150.945 44.1052 150.945 44.1957 150.919 44.2992C150.673 45.1783 150.408 45.87 150.124 46.3742C149.839 46.8655 149.549 47.2081 149.251 47.402C148.967 47.596 148.676 47.6929 148.379 47.6929C147.913 47.6929 147.564 47.499 147.331 47.1111C147.099 46.7233 147.086 46.1221 147.293 45.3076L148.786 39.6836C148.928 39.1794 148.947 38.8303 148.844 38.6364C148.753 38.4425 148.618 38.3455 148.437 38.3455C148.152 38.3455 147.829 38.5265 147.467 38.8885C147.105 39.2376 146.737 39.7224 146.362 40.343C145.987 40.9506 145.618 41.6423 145.256 42.418C144.894 43.1938 144.565 44.0018 144.267 44.8422C143.983 45.6825 143.75 46.5035 143.569 47.3051C143.53 47.4473 143.44 47.5184 143.298 47.5184H142.502C142.321 47.5184 142.25 47.4344 142.289 47.2663Z" fill="#0D0D0D"/>
<path d="M154.128 47.6929C153.417 47.6929 152.829 47.402 152.363 46.8203C151.898 46.2255 151.665 45.4692 151.665 44.5513C151.665 43.685 151.801 42.8382 152.073 42.0108C152.357 41.1704 152.732 40.4141 153.197 39.7418C153.676 39.0566 154.199 38.5136 154.768 38.1128C155.35 37.712 155.932 37.5116 156.514 37.5116C157.134 37.5116 157.658 37.6797 158.084 38.0158C158.149 38.0675 158.188 38.1128 158.201 38.1516C158.214 38.1774 158.207 38.2421 158.181 38.3455L157.658 40.886C157.619 41.067 157.535 41.1575 157.406 41.1575C157.263 41.1575 157.179 41.0605 157.154 40.8666L157.057 39.4897C157.018 38.895 156.927 38.5071 156.785 38.3261C156.656 38.1451 156.462 38.0546 156.203 38.0546C155.841 38.0546 155.473 38.2356 155.098 38.5976C154.723 38.9467 154.374 39.425 154.051 40.0327C153.74 40.6274 153.488 41.2932 153.294 42.0302C153.113 42.7542 153.023 43.4911 153.023 44.241C153.023 45.87 153.553 46.6845 154.613 46.6845C155.117 46.6845 155.57 46.4518 155.971 45.9864C156.384 45.5209 156.766 44.7969 157.115 43.8143C157.154 43.685 157.244 43.6204 157.386 43.6204C157.464 43.6204 157.509 43.6527 157.522 43.7174C157.535 43.7691 157.522 43.879 157.483 44.047C157.354 44.7581 157.121 45.3852 156.785 45.9282C156.449 46.4712 156.048 46.9043 155.583 47.2275C155.13 47.5378 154.645 47.6929 154.128 47.6929Z" fill="#0D0D0D"/>
<path d="M164.418 47.6929C163.952 47.6929 163.603 47.499 163.371 47.1111C163.138 46.7233 163.125 46.1221 163.332 45.3076L164.825 39.6836C164.967 39.1794 164.987 38.8303 164.883 38.6364C164.793 38.4425 164.657 38.3455 164.476 38.3455C164.192 38.3455 163.868 38.5265 163.506 38.8885C163.157 39.2376 162.789 39.7224 162.401 40.343C162.026 40.9506 161.658 41.6423 161.296 42.418C160.947 43.1808 160.623 43.9889 160.326 44.8422C160.029 45.6825 159.789 46.5035 159.608 47.3051C159.57 47.4473 159.479 47.5184 159.337 47.5184H158.522C158.341 47.5184 158.27 47.4344 158.309 47.2663L161.141 35.1069C161.205 34.8741 161.205 34.7125 161.141 34.622C161.089 34.5315 160.972 34.4798 160.791 34.4669L160.21 34.4087C160.016 34.3958 159.932 34.3117 159.958 34.1566C159.983 34.0402 160.074 33.9691 160.229 33.9433C160.694 33.8657 161.108 33.7752 161.47 33.6718C161.832 33.5554 162.123 33.4067 162.343 33.2257C162.446 33.1482 162.543 33.1094 162.634 33.1094C162.789 33.1094 162.847 33.2063 162.808 33.4003L160.908 41.6423C160.895 41.7328 160.914 41.7845 160.966 41.7975C161.018 41.8104 161.063 41.7781 161.102 41.7005C161.619 40.6403 162.11 39.8064 162.576 39.1988C163.041 38.5911 163.474 38.158 163.875 37.8995C164.289 37.6409 164.664 37.5116 165 37.5116C165.478 37.5116 165.827 37.7055 166.047 38.0934C166.267 38.4812 166.267 39.076 166.047 39.8775L164.573 45.5015C164.483 45.8635 164.476 46.135 164.554 46.316C164.631 46.497 164.773 46.5875 164.98 46.5875C165.239 46.5875 165.491 46.4195 165.737 46.0833C165.982 45.7342 166.247 45.0813 166.532 44.1246C166.571 43.9824 166.655 43.9113 166.784 43.9113C166.887 43.9113 166.945 43.9501 166.958 44.0277C166.984 44.1052 166.984 44.1957 166.958 44.2992C166.713 45.1783 166.448 45.87 166.163 46.3742C165.879 46.8655 165.588 47.2081 165.291 47.402C165.006 47.596 164.715 47.6929 164.418 47.6929Z" fill="#0D0D0D"/>
<path d="M165.923 51.494C165.754 51.494 165.67 51.4229 165.67 51.2807C165.67 51.1514 165.774 51.0738 165.981 51.0479L166.252 51.0091C166.511 50.9704 166.705 50.8928 166.834 50.7764C166.95 50.673 167.041 50.4791 167.106 50.1946L169.685 39.063C169.711 38.9596 169.691 38.882 169.627 38.8303C169.575 38.7657 169.497 38.7657 169.394 38.8303C169.265 38.895 169.142 38.9661 169.025 39.0436C168.909 39.1083 168.793 39.1794 168.676 39.257C168.56 39.3345 168.463 39.3604 168.385 39.3345C168.308 39.2958 168.269 39.2311 168.269 39.1406C168.269 39.0501 168.334 38.9596 168.463 38.8691C168.825 38.6235 169.2 38.4101 169.588 38.2291C169.808 38.1257 169.943 37.9576 169.995 37.7249L170.247 36.6195C170.312 36.348 170.48 36.2123 170.751 36.2123H171.1C171.256 36.2123 171.372 36.2575 171.45 36.348C171.527 36.4385 171.547 36.5678 171.508 36.7359L171.372 37.2983C171.333 37.5181 171.417 37.6086 171.624 37.5698C171.921 37.531 172.206 37.5116 172.477 37.5116C173.434 37.5116 174.216 37.7831 174.824 38.3261C175.432 38.8691 175.735 39.703 175.735 40.8278C175.735 41.707 175.574 42.5602 175.251 43.3877C174.927 44.2022 174.501 44.9327 173.971 45.5791C173.441 46.2255 172.859 46.7427 172.225 47.1305C171.592 47.5055 170.958 47.6929 170.325 47.6929C169.976 47.6929 169.646 47.6218 169.336 47.4796C169.142 47.3891 169.025 47.4408 168.987 47.6348L168.405 50.1946C168.34 50.4791 168.34 50.6665 168.405 50.757C168.482 50.8475 168.644 50.9122 168.89 50.951L169.394 51.0285C169.627 51.0673 169.743 51.1449 169.743 51.2613C169.743 51.4164 169.633 51.494 169.413 51.494H165.923ZM169.53 45.2882C169.297 46.5681 169.575 47.2081 170.364 47.2081C170.816 47.2081 171.275 47.0206 171.74 46.6457C172.206 46.2579 172.639 45.7472 173.04 45.1137C173.441 44.4672 173.764 43.7432 174.009 42.9416C174.255 42.1401 174.378 41.3191 174.378 40.4787C174.378 39.6125 174.19 38.9919 173.816 38.617C173.441 38.2291 172.891 38.0352 172.167 38.0352C171.521 38.0352 171.152 38.255 171.062 38.6946L169.53 45.2882Z" fill="#0D0D0D"/>
<path d="M177.853 47.6929C177.388 47.6929 177.026 47.4925 176.767 47.0918C176.508 46.691 176.379 46.1027 176.379 45.327C176.379 44.5901 176.483 43.8531 176.689 43.1162C176.896 42.3663 177.181 41.6552 177.543 40.9829C177.905 40.3107 178.312 39.7159 178.765 39.1988C179.23 38.6816 179.715 38.2744 180.219 37.977C180.736 37.6667 181.247 37.5116 181.751 37.5116C181.997 37.5116 182.229 37.5633 182.449 37.6667C182.669 37.7572 182.85 37.9059 182.992 38.1128C183.07 38.2291 183.147 38.2873 183.225 38.2873C183.303 38.2873 183.38 38.2291 183.458 38.1128C183.6 37.9059 183.716 37.7766 183.807 37.7249C183.897 37.6603 183.981 37.628 184.059 37.628C184.227 37.628 184.292 37.7185 184.253 37.8995L182.527 45.327C182.333 46.1674 182.462 46.5875 182.915 46.5875C183.212 46.5875 183.477 46.3871 183.71 45.9864C183.955 45.5856 184.201 44.965 184.447 44.1246C184.485 43.9824 184.57 43.9113 184.699 43.9113C184.789 43.9113 184.847 43.9501 184.873 44.0277C184.899 44.1052 184.899 44.1957 184.873 44.2992C184.628 45.5145 184.298 46.3871 183.884 46.9172C183.471 47.4344 182.973 47.6929 182.391 47.6929C181.887 47.6929 181.525 47.4796 181.305 47.053C181.098 46.6263 181.079 46.0445 181.247 45.3076L181.499 44.241C181.525 44.1505 181.505 44.0988 181.441 44.0858C181.389 44.0729 181.344 44.1052 181.305 44.1828C180.594 45.4886 179.96 46.4001 179.405 46.9172C178.862 47.4344 178.344 47.6929 177.853 47.6929ZM178.338 46.7039C178.648 46.7039 178.991 46.5164 179.366 46.1415C179.741 45.7666 180.109 45.2817 180.471 44.687C180.846 44.0923 181.189 43.4523 181.499 42.7671C181.809 42.0819 182.055 41.4225 182.236 40.789C182.43 40.1555 182.527 39.619 182.527 39.1794C182.527 38.3907 182.249 37.9964 181.693 37.9964C181.357 37.9964 181.001 38.1516 180.626 38.4619C180.251 38.7592 179.889 39.1665 179.54 39.6836C179.204 40.2008 178.894 40.789 178.609 41.4484C178.338 42.0948 178.118 42.7736 177.95 43.4846C177.782 44.1828 177.698 44.868 177.698 45.5403C177.698 45.9928 177.75 46.3031 177.853 46.4712C177.969 46.6263 178.131 46.7039 178.338 46.7039Z" fill="#0D0D0D"/>
<path d="M187.058 47.6929C186.579 47.6929 186.211 47.4925 185.952 47.0918C185.694 46.691 185.564 46.1027 185.564 45.327C185.564 44.5901 185.668 43.8531 185.875 43.1162C186.082 42.3663 186.366 41.6552 186.728 40.9829C187.09 40.3107 187.497 39.7159 187.95 39.1988C188.415 38.6816 188.9 38.2744 189.404 37.977C189.921 37.6667 190.432 37.5116 190.936 37.5116C191.285 37.5116 191.589 37.6021 191.848 37.7831C192.029 37.8995 192.139 37.8607 192.177 37.6667L192.798 35.1069C192.863 34.8741 192.863 34.7125 192.798 34.622C192.746 34.5315 192.63 34.4798 192.449 34.4669L191.867 34.4087C191.673 34.3958 191.589 34.3117 191.615 34.1566C191.641 34.0402 191.731 33.9691 191.886 33.9433C192.352 33.8657 192.766 33.7752 193.128 33.6718C193.49 33.5554 193.781 33.4067 194 33.2257C194.104 33.1482 194.201 33.1094 194.291 33.1094C194.446 33.1094 194.505 33.2063 194.466 33.4003L191.712 45.327C191.518 46.1674 191.647 46.5875 192.1 46.5875C192.397 46.5875 192.662 46.3871 192.895 45.9864C193.141 45.5856 193.386 44.965 193.632 44.1246C193.671 43.9824 193.755 43.9113 193.884 43.9113C193.974 43.9113 194.033 43.9501 194.059 44.0277C194.084 44.1052 194.084 44.1957 194.059 44.2992C193.813 45.5145 193.47 46.3871 193.031 46.9172C192.604 47.4344 192.1 47.6929 191.518 47.6929C191.014 47.6929 190.652 47.4796 190.432 47.053C190.225 46.6263 190.206 46.0445 190.374 45.3076L190.587 44.4155C190.613 44.325 190.594 44.2733 190.529 44.2604C190.477 44.2474 190.432 44.2798 190.393 44.3573C189.773 45.5726 189.184 46.4324 188.628 46.9366C188.073 47.4408 187.549 47.6929 187.058 47.6929ZM187.523 46.7039C187.833 46.7039 188.176 46.5164 188.551 46.1415C188.926 45.7666 189.294 45.2817 189.656 44.687C190.031 44.0923 190.374 43.4523 190.684 42.7671C190.994 42.0819 191.24 41.4225 191.421 40.789C191.615 40.1555 191.712 39.619 191.712 39.1794C191.712 38.3907 191.434 37.9964 190.878 37.9964C190.542 37.9964 190.186 38.1516 189.811 38.4619C189.437 38.7592 189.075 39.1665 188.725 39.6836C188.389 40.2008 188.079 40.789 187.795 41.4484C187.523 42.0948 187.303 42.7736 187.135 43.4846C186.967 44.1828 186.883 44.868 186.883 45.5403C186.883 45.9928 186.941 46.3031 187.058 46.4712C187.187 46.6263 187.342 46.7039 187.523 46.7039Z" fill="#0D0D0D"/>
<g clip-path="url(#clip1_28525_53978)">
<path d="M208.175 9.075C218.45 24.9 215.525 47.025 199.85 58.95C199.55 59.25 199.4 59.625 199.55 59.85C199.7 60.075 200.15 60.075 200.45 59.775C207.887 53.8887 212.797 45.3845 214.175 36C215.6 26.55 213.5 16.95 208.175 9.075ZM207.35 53.625C209.525 55.5 213.875 53.925 216.05 49.575C213.425 48.3 209.9 50.325 207.35 53.625ZM205.025 43.8C203.6 46.725 203.6 50.4 205.775 52.35C208.325 49.05 207.575 45 205.025 43.8ZM211.4 47.1C213.875 48.6 217.775 46.2 219.05 41.55C216.275 40.875 213.275 43.5 211.4 47.1ZM207.125 38.1C206.3 41.25 207.05 44.85 209.6 46.2H209.675C211.475 42.525 209.9 38.775 207.125 38.1ZM214.025 40.125C216.8 41.025 220.1 37.95 220.475 33.15C217.625 33 215.15 36.225 214.025 40.125ZM208.1 32.175C207.875 35.4 209.375 38.7 212.15 39.6V39.525C213.2 35.625 211.025 32.325 208.1 32.175ZM220.25 24.6C217.4 25.125 215.6 28.725 215.3 32.7C218.15 33.075 220.85 29.4 220.25 24.6ZM207.95 26.175C208.4 29.4 210.425 32.25 213.275 32.625L213.35 32.55C213.575 28.575 210.8 25.725 207.95 26.175ZM206.675 20.325C207.65 23.4 210.275 25.8 213.125 25.5C212.675 21.525 209.375 19.275 206.675 20.325ZM218.45 16.275C215.825 17.325 214.7 21.15 215.075 25.05L215.15 25.275H215.225C218 24.9 219.875 21 218.525 16.5L218.45 16.275ZM204.275 14.7C205.925 17.55 208.85 19.425 211.625 18.6C210.425 14.775 206.75 13.125 204.275 14.7ZM215 8.4C212.6 9.975 212.3 14.1 213.5 18C216.275 17.175 217.475 12.675 215 8.4ZM200.75 9.6C203 12.15 206.3 13.425 208.85 12.075C206.825 8.475 202.775 7.575 200.75 9.6ZM210.05 1.2C207.95 3.3 208.55 7.5 210.575 11.025C213.05 9.675 213.35 5.025 210.05 1.2ZM199.55 0C200.9 3.525 203.75 6.3 207.2 7.65C207.2 4.05 203.3 0.075 199.55 0Z" fill="#00AA45"/>
</g>
<defs>
<clipPath id="clip0_28525_53978">
<rect width="21" height="60" fill="white"/>
</clipPath>
<clipPath id="clip1_28525_53978">
<rect width="21" height="60" fill="white" transform="matrix(-1 0 0 1 220.475 0)"/>
</clipPath>
</defs>
</svg>
